<svg xmlns="http://www.w3.org/2000/svg" viewBox="0 0 144 144" role="img" aria-label="Dodge Mint player sprite">
  <defs>
    <linearGradient id="mintBody" x1="0" x2="1" y1="0" y2="1">
      <stop offset="0%" stop-color="#9af6dd"/>
      <stop offset="100%" stop-color="#67d9c0"/>
    </linearGradient>
    <linearGradient id="capeFill" x1="0" x2="1" y1="0" y2="1">
      <stop offset="0%" stop-color="#174f31"/>
      <stop offset="100%" stop-color="#0b2f1b"/>
    </linearGradient>
    <filter id="shadow" x="-20%" y="-20%" width="140%" height="140%">
      <feDropShadow dx="0" dy="6" stdDeviation="6" flood-color="#081710" flood-opacity="0.28"/>
    </filter>
  </defs>
  <g filter="url(#shadow)" transform="translate(8 6) rotate(-16 64 72)">
    <ellipse cx="60" cy="36" rx="12" ry="11" fill="url(#mintBody)" stroke="#0f7d76" stroke-width="4"/>
    <ellipse cx="94" cy="35" rx="13" ry="12" fill="url(#mintBody)" stroke="#0f7d76" stroke-width="4"/>
    <path d="M44 28C53 16 73 12 92 18C108 24 119 37 118 55C117 73 106 86 88 94C70 101 49 96 37 82C27 70 24 55 29 42C32 36 37 31 44 28Z" fill="url(#mintBody)" stroke="#0f7d76" stroke-width="5" stroke-linejoin="round"/>
    <path d="M61 22C67 18 74 17 80 20" fill="none" stroke="#5dcfbf" stroke-width="5" stroke-linecap="round" opacity="0.9"/>
    <path d="M84 76C102 70 116 60 129 47" fill="none" stroke="#0f7d76" stroke-width="15" stroke-linecap="round"/>
    <path d="M85 77C102 71 116 61 128 49" fill="none" stroke="url(#mintBody)" stroke-width="11" stroke-linecap="round"/>
    <path d="M45 87C49 95 53 102 59 108" fill="none" stroke="#0f7d76" stroke-width="16" stroke-linecap="round"/>
    <path d="M47 87C51 94 55 101 61 107" fill="none" stroke="url(#mintBody)" stroke-width="12" stroke-linecap="round"/>
    <path d="M57 102C63 107 68 111 73 116" fill="none" stroke="#0f7d76" stroke-width="16" stroke-linecap="round"/>
    <path d="M59 101C64 106 69 110 74 114" fill="none" stroke="url(#mintBody)" stroke-width="12" stroke-linecap="round"/>
    <path d="M34 74C24 77 16 84 9 95C19 97 33 98 47 94C62 90 78 82 90 72C80 62 66 58 52 60C45 61 39 66 34 74Z" fill="url(#capeFill)" stroke="#0a2415" stroke-width="5" stroke-linejoin="round"/>
    <path d="M44 64C53 61 65 62 76 69" fill="none" stroke="#245f3f" stroke-width="5" stroke-linecap="round"/>
    <path d="M34 75C48 82 64 83 80 76" fill="none" stroke="#2e7a52" stroke-width="4" stroke-linecap="round" opacity="0.8"/>
  </g>
</svg>