<svg xmlns="http://www.w3.org/2000/svg" viewBox="0 0 144 144" role="img" aria-label="Dodge Mint player sprite">
  <defs>
    <linearGradient id="mintBody" x1="0" x2="1" y1="0" y2="1">
      <stop offset="0%" stop-color="#b8ffe9"/>
      <stop offset="100%" stop-color="#66dcc5"/>
    </linearGradient>
    <linearGradient id="mintBodyDark" x1="0" x2="1" y1="0" y2="1">
      <stop offset="0%" stop-color="#8ae9d7"/>
      <stop offset="100%" stop-color="#53c3b2"/>
    </linearGradient>
    <linearGradient id="capeFill" x1="0" x2="1" y1="0" y2="1">
      <stop offset="0%" stop-color="#2b8f62"/>
      <stop offset="100%" stop-color="#155233"/>
    </linearGradient>
    <linearGradient id="capeShade" x1="0" x2="1" y1="0" y2="1">
      <stop offset="0%" stop-color="#1d6e4b"/>
      <stop offset="100%" stop-color="#0f3f27"/>
    </linearGradient>
    <filter id="shadow" x="-25%" y="-25%" width="150%" height="150%">
      <feDropShadow dx="0" dy="7" stdDeviation="6" flood-color="#0d2a1b" flood-opacity="0.24"/>
    </filter>
  </defs>
  <g filter="url(#shadow)" transform="translate(6 8) rotate(-24 66 74)">
    <ellipse cx="58" cy="30" rx="13" ry="12" fill="url(#mintBody)" stroke="#269a8a" stroke-width="4"/>
    <ellipse cx="95" cy="28" rx="14" ry="13" fill="url(#mintBody)" stroke="#269a8a" stroke-width="4"/>
    <path d="M43 24C53 14 73 11 93 17C110 22 122 36 121 56C120 76 108 90 88 98C68 106 46 100 34 85C24 72 22 56 27 42C30 34 35 28 43 24Z" fill="url(#mintBody)" stroke="#269a8a" stroke-width="5" stroke-linejoin="round"/>
    <path d="M58 22C66 17 76 17 84 21" fill="none" stroke="#f2fffc" stroke-width="5" stroke-linecap="round" opacity="0.7"/>
    <ellipse cx="76" cy="29" rx="20" ry="8" fill="#ffffff" opacity="0.16" transform="rotate(-12 76 29)"/>
    <path d="M52 62C65 72 80 80 98 84" fill="none" stroke="url(#mintBodyDark)" stroke-width="13" stroke-linecap="round" opacity="0.4"/>
    <path d="M82 72C102 64 118 52 132 36" fill="none" stroke="#269a8a" stroke-width="17" stroke-linecap="round"/>
    <path d="M82 73C101 66 117 54 130 39" fill="none" stroke="url(#mintBody)" stroke-width="12" stroke-linecap="round"/>
    <path d="M90 68C103 61 114 53 123 43" fill="none" stroke="#ffffff" stroke-width="3" stroke-linecap="round" opacity="0.28"/>
    <path d="M44 86C47 97 53 106 62 114" fill="none" stroke="#269a8a" stroke-width="16" stroke-linecap="round"/>
    <path d="M46 86C50 96 56 104 64 111" fill="none" stroke="url(#mintBody)" stroke-width="11" stroke-linecap="round"/>
    <path d="M61 99C68 105 74 111 80 118" fill="none" stroke="#269a8a" stroke-width="15" stroke-linecap="round"/>
    <path d="M63 99C69 105 75 110 80 116" fill="none" stroke="url(#mintBody)" stroke-width="10" stroke-linecap="round"/>
    <path d="M29 68C17 72 8 82 2 95C17 100 37 102 58 97C78 92 95 82 108 69C96 56 80 51 63 53C49 55 37 60 29 68Z" fill="url(#capeFill)" stroke="#14472d" stroke-width="5" stroke-linejoin="round"/>
    <path d="M48 63C59 59 72 61 87 69" fill="none" stroke="#9cf3cf" stroke-width="4" stroke-linecap="round" opacity="0.35"/>
    <path d="M31 79C47 86 66 86 86 79" fill="none" stroke="#0f3f27" stroke-width="10" stroke-linecap="round" opacity="0.35"/>
    <path d="M29 68C41 74 57 77 74 74C86 72 97 67 106 61" fill="none" stroke="url(#capeShade)" stroke-width="6" stroke-linecap="round" opacity="0.6"/>
  </g>
</svg>