<svg xmlns="http://www.w3.org/2000/svg" viewBox="0 0 128 104" role="img" aria-label="Dodge Mint player sprite">
  <defs>
    <linearGradient id="mintBody" x1="0" x2="1" y1="0" y2="1">
      <stop offset="0%" stop-color="#c7fff0"/>
      <stop offset="100%" stop-color="#67dcc6"/>
    </linearGradient>
    <linearGradient id="mintShade" x1="0" x2="1" y1="0" y2="1">
      <stop offset="0%" stop-color="#8ce8d8"/>
      <stop offset="100%" stop-color="#49baa8"/>
    </linearGradient>
    <linearGradient id="capeFill" x1="0" x2="1" y1="0" y2="1">
      <stop offset="0%" stop-color="#2f8f61"/>
      <stop offset="100%" stop-color="#16492e"/>
    </linearGradient>
    <filter id="shadow" x="-20%" y="-20%" width="140%" height="140%">
      <feDropShadow dx="0" dy="6" stdDeviation="4" flood-color="#0b2417" flood-opacity="0.22"/>
    </filter>
  </defs>

  <g filter="url(#shadow)" transform="translate(6 8) rotate(-24 64 52)">
    <path d="M15 58C25 48 41 43 59 44C78 45 95 53 108 68C92 78 74 84 55 85C37 86 22 80 10 69C10 65 11 61 15 58Z" fill="url(#capeFill)" stroke="#133e27" stroke-width="4" stroke-linejoin="round"/>
    <path d="M23 60C37 65 54 66 72 63" fill="none" stroke="#9df0ce" stroke-width="4" stroke-linecap="round" opacity="0.34"/>
    <ellipse cx="56" cy="24" rx="11" ry="10" fill="url(#mintBody)" stroke="#249886" stroke-width="4"/>
    <ellipse cx="88" cy="22" rx="12" ry="11" fill="url(#mintBody)" stroke="#249886" stroke-width="4"/>
    <path d="M40 22C50 12 69 10 88 15C105 20 117 32 117 49C117 67 105 80 87 88C69 96 48 92 36 79C26 68 23 54 27 41C30 33 34 27 40 22Z" fill="url(#mintBody)" stroke="#249886" stroke-width="5" stroke-linejoin="round"/>
    <path d="M55 20C63 16 72 16 80 20" fill="none" stroke="#eefdfa" stroke-width="5" stroke-linecap="round" opacity="0.7"/>
    <ellipse cx="77" cy="28" rx="18" ry="7" fill="#ffffff" opacity="0.16" transform="rotate(-12 77 28)"/>
    <path d="M54 58C67 66 82 71 99 73" fill="none" stroke="url(#mintShade)" stroke-width="12" stroke-linecap="round" opacity="0.42"/>
    <path d="M82 64C96 59 108 50 118 38" fill="none" stroke="#249886" stroke-width="16" stroke-linecap="round"/>
    <path d="M82 64C95 58 106 50 115 40" fill="none" stroke="url(#mintBody)" stroke-width="11" stroke-linecap="round"/>
    <path d="M43 78C47 87 53 95 62 102" fill="none" stroke="#249886" stroke-width="15" stroke-linecap="round"/>
    <path d="M45 78C49 87 55 93 62 99" fill="none" stroke="url(#mintBody)" stroke-width="10" stroke-linecap="round"/>
    <path d="M61 90C67 96 73 101 79 106" fill="none" stroke="#249886" stroke-width="14" stroke-linecap="round"/>
    <path d="M63 90C68 95 73 99 78 103" fill="none" stroke="url(#mintBody)" stroke-width="9" stroke-linecap="round"/>
  </g>
</svg>