<svg xmlns="http://www.w3.org/2000/svg" viewBox="0 0 132 132" role="img" aria-label="Dodge Mint player sprite back view">
  <defs>
    <linearGradient id="bodyFill" x1="0" x2="1" y1="0" y2="1">
      <stop offset="0%" stop-color="#6dd9d4"/>
      <stop offset="100%" stop-color="#43bebd"/>
    </linearGradient>
    <linearGradient id="legFill" x1="0" x2="0" y1="0" y2="1">
      <stop offset="0%" stop-color="#17889a"/>
      <stop offset="100%" stop-color="#0d7385"/>
    </linearGradient>
    <linearGradient id="capeFill" x1="0" x2="1" y1="0" y2="1">
      <stop offset="0%" stop-color="#297b9d"/>
      <stop offset="100%" stop-color="#155f85"/>
    </linearGradient>
    <linearGradient id="capeShade" x1="0" x2="1" y1="0" y2="1">
      <stop offset="0%" stop-color="#1b5f83"/>
      <stop offset="100%" stop-color="#0f4d6f"/>
    </linearGradient>
    <filter id="shadow" x="-20%" y="-20%" width="140%" height="150%">
      <feDropShadow dx="0" dy="6" stdDeviation="5" flood-color="#081521" flood-opacity="0.20"/>
    </filter>
  </defs>

  <g filter="url(#shadow)" transform="translate(4 4) rotate(-18 66 66)">
    <path d="M87 90C96 96 103 107 105 119C97 123 89 123 82 119C79 110 79 100 87 90Z" fill="url(#legFill)"/>
    <path d="M54 94C60 101 61 110 58 120C51 124 43 124 36 119C38 108 45 99 54 94Z" fill="url(#legFill)"/>
    <path d="M48 81C51 86 52 90 50 97" fill="none" stroke="#0b6a7c" stroke-width="4.5" stroke-linecap="round" opacity="0.55"/>
    <path d="M77 83C80 88 81 92 79 99" fill="none" stroke="#0b6a7c" stroke-width="4.5" stroke-linecap="round" opacity="0.55"/>

    <path d="M25 75C20 68 21 59 29 55C37 51 46 56 47 65C48 74 38 82 29 81" fill="url(#bodyFill)" stroke="#0b8b97" stroke-width="4.5" stroke-linecap="round" stroke-linejoin="round"/>
    <path d="M89 56C97 45 108 44 114 51C120 58 118 68 109 74C100 80 90 77 88 69" fill="url(#bodyFill)" stroke="#0b8b97" stroke-width="4.5" stroke-linecap="round" stroke-linejoin="round"/>
    <path d="M106 51C112 49 116 53 116 59" fill="none" stroke="#0b8b97" stroke-width="4" stroke-linecap="round"/>
    <path d="M102 47C107 43 113 45 116 50" fill="none" stroke="#0b8b97" stroke-width="4" stroke-linecap="round"/>

    <path d="M66 20C79 20 91 26 98 36C105 47 107 61 103 74C97 92 82 102 64 102C46 102 32 93 25 77C20 64 21 49 28 38C36 26 50 20 66 20Z" fill="url(#bodyFill)" stroke="#0b8b97" stroke-width="5"/>
    <path d="M42 18C45 10 55 6 62 12C65 14 66 18 65 22" fill="url(#bodyFill)" stroke="#0b8b97" stroke-width="5" stroke-linejoin="round"/>
    <path d="M70 22C69 17 70 13 74 10C81 5 91 9 93 18" fill="url(#bodyFill)" stroke="#0b8b97" stroke-width="5" stroke-linejoin="round"/>
    <path d="M46 20C50 15 55 14 60 16" fill="#5bc4c8" opacity="0.75"/>
    <path d="M75 16C80 14 85 15 89 20" fill="#5bc4c8" opacity="0.75"/>
    <ellipse cx="63" cy="35" rx="29" ry="20" fill="#ffffff" opacity="0.08"/>

    <path d="M25 69C34 59 44 55 57 54C72 53 84 57 98 67C111 76 120 90 121 109C105 108 92 107 79 105C61 103 45 101 30 95C20 91 12 86 8 79C11 74 17 72 25 69Z" fill="url(#capeFill)" stroke="#145976" stroke-width="4.5" stroke-linejoin="round"/>
    <path d="M36 73C48 78 62 79 77 76" fill="none" stroke="#3b93b7" stroke-width="5" stroke-linecap="round" opacity="0.55"/>
    <path d="M27 76C39 87 55 94 73 98" fill="none" stroke="url(#capeShade)" stroke-width="8" stroke-linecap="round" opacity="0.46"/>
    <path d="M72 69C78 77 83 84 87 92" fill="none" stroke="url(#capeShade)" stroke-width="8" stroke-linecap="round" opacity="0.42"/>
    <path d="M55 57C61 55 68 55 75 57" fill="none" stroke="#17889a" stroke-width="5" stroke-linecap="round" opacity="0.42"/>
  </g>
</svg>